<svg width="508" height="100" viewBox="0 0 508 100" fill="none" xmlns="http://www.w3.org/2000/svg">
<path d="M494.785 0H13.2147C5.91643 0 0 5.38027 0 12.0172V87.9828C0 94.6197 5.91643 100 13.2147 100H494.785C502.084 100 508 94.6197 508 87.9828V12.0172C508 5.38027 502.084 0 494.785 0Z" fill="url(#paint0_linear_362_2495)"/>
<path d="M67.5228 53.0222C68.8451 50.9471 68.1664 48.2349 66.0071 46.9644C63.8478 45.6937 61.0255 46.3459 59.7034 48.421L67.5228 53.0222ZM48.7134 74.1056V78.5112H51.282L52.6231 76.4062L48.7134 74.1056ZM38.6627 74.1056L34.68 76.2875L35.9991 78.5112H38.6627V74.1056ZM33.2847 65.04L29.3135 62.8389L28 65.0273L29.302 67.222L33.2847 65.04ZM56.4718 26.4057V22H53.8236L52.5006 24.2045L56.4718 26.4057ZM72.5177 26.4057L76.4836 24.1957L75.1587 22H72.5177V26.4057ZM95.8811 65.1248L99.8384 67.3491L101.186 65.1344L99.8471 62.9148L95.8811 65.1248ZM90.4149 74.1056L90.3957 78.5112L93.0382 78.5217L94.3723 76.3299L90.4149 74.1056ZM69.8727 74.023L66.0485 76.4528L67.401 78.4187L69.8535 78.4285L69.8727 74.023ZM69.6964 73.7667L65.7297 71.5579L64.3057 73.9195L65.8722 76.1964L69.6964 73.7667ZM96.4975 38.1036L98.796 34.2915L90.8624 29.8741L88.5642 33.686L96.4975 38.1036ZM59.7034 48.421L44.8037 71.8049L52.6231 76.4062L67.5228 53.0222L59.7034 48.421ZM48.7134 69.6999H38.6627V78.5112H48.7134V69.6999ZM42.6454 71.9236L37.2674 62.858L29.302 67.222L34.68 76.2875L42.6454 71.9236ZM37.256 67.2412L60.4431 28.6068L52.5006 24.2045L29.3135 62.8389L37.256 67.2412ZM56.4718 30.8113H72.5177V22H56.4718V30.8113ZM68.5517 28.6156L91.9151 67.3347L99.8471 62.9148L76.4836 24.1957L68.5517 28.6156ZM91.9238 62.9004L86.4576 71.8812L94.3723 76.3299L99.8384 67.3491L91.9238 62.9004ZM90.4341 69.6999L69.892 69.6174L69.8535 78.4285L90.3957 78.5112L90.4341 69.6999ZM73.6969 71.5931L73.5206 71.3369L65.8722 76.1964L66.0485 76.4528L73.6969 71.5931ZM73.6631 75.9754L79.3717 66.5075L71.4384 62.0899L65.7297 71.5579L73.6631 75.9754ZM79.3717 66.5075L96.4975 38.1036L88.5642 33.686L71.4384 62.0899L79.3717 66.5075Z" fill="white"/>
<path d="M100.556 22.1377V35.4445L88.5642 28.7911L100.556 22.1377Z" fill="white"/>
<path d="M154.165 72.2434C150.91 72.2434 147.876 71.716 145.064 70.6608C142.291 69.5652 139.88 68.023 137.831 66.0347C135.782 64.0463 134.175 61.713 133.009 59.0347C131.884 56.3565 131.322 53.4144 131.322 50.2087C131.322 47.0029 131.884 44.0608 133.009 41.3826C134.175 38.7043 135.782 36.371 137.831 34.3826C139.92 32.3942 142.351 30.8724 145.124 29.8173C147.896 28.7217 150.93 28.1739 154.225 28.1739C157.881 28.1739 161.176 28.8231 164.109 30.1217C167.083 31.3797 169.574 33.2463 171.583 35.7217L165.315 41.5652C163.868 39.9014 162.261 38.6637 160.493 37.8521C158.725 37 156.796 36.5739 154.707 36.5739C152.738 36.5739 150.93 36.8985 149.283 37.5478C147.635 38.197 146.209 39.1304 145.003 40.3478C143.798 41.5652 142.854 43.0057 142.171 44.6695C141.528 46.3333 141.206 48.1797 141.206 50.2087C141.206 52.2377 141.528 54.084 142.171 55.7478C142.854 57.4116 143.798 58.8521 145.003 60.0695C146.209 61.2869 147.635 62.2203 149.283 62.8695C150.93 63.5188 152.738 63.8434 154.707 63.8434C156.796 63.8434 158.725 63.4377 160.493 62.626C162.261 61.7739 163.868 60.4956 165.315 58.7913L171.583 64.6347C169.574 67.1101 167.083 68.9969 164.109 70.2956C161.176 71.5943 157.861 72.2434 154.165 72.2434ZM197.222 38.2782C199.794 38.2782 202.084 38.8057 204.093 39.8608C206.142 40.8753 207.75 42.4579 208.915 44.6087C210.08 46.7188 210.662 49.4377 210.662 52.7652V71.513H201.26V54.226C201.26 51.5883 200.678 49.6405 199.512 48.3826C198.387 47.1246 196.78 46.4956 194.691 46.4956C193.204 46.4956 191.858 46.8203 190.652 47.4695C189.487 48.0782 188.563 49.0318 187.88 50.3304C187.237 51.629 186.916 53.2927 186.916 55.3217V71.513H177.513V26.3478H186.916V47.8347L184.806 45.0956C185.972 42.9043 187.639 41.2203 189.809 40.0434C191.978 38.8666 194.45 38.2782 197.222 38.2782ZM235.513 72C231.817 72 228.562 71.2695 225.749 69.8087C222.977 68.3478 220.827 66.3594 219.3 63.8434C217.774 61.2869 217.01 58.3855 217.01 55.1391C217.01 51.8521 217.753 48.9507 219.24 46.4347C220.767 43.8782 222.836 41.8898 225.448 40.4695C228.06 39.0087 231.013 38.2782 234.308 38.2782C237.482 38.2782 240.335 38.9681 242.866 40.3478C245.438 41.6869 247.467 43.6347 248.954 46.1913C250.441 48.7072 251.184 51.7304 251.184 55.2608C251.184 55.626 251.164 56.0521 251.123 56.5391C251.083 56.9855 251.043 57.4116 251.003 57.8173H224.664V52.2782H246.061L242.444 53.9217C242.444 52.2173 242.103 50.7362 241.42 49.4782C240.737 48.2203 239.792 47.2463 238.587 46.5565C237.382 45.826 235.976 45.4608 234.368 45.4608C232.761 45.4608 231.335 45.826 230.089 46.5565C228.883 47.2463 227.939 48.2405 227.256 49.5391C226.573 50.797 226.231 52.2985 226.231 54.0434V55.5043C226.231 57.2898 226.613 58.8724 227.377 60.2521C228.18 61.5913 229.285 62.626 230.691 63.3565C232.138 64.0463 233.826 64.3913 235.754 64.3913C237.482 64.3913 238.989 64.1275 240.275 63.6C241.601 63.0724 242.806 62.2811 243.891 61.226L248.893 66.7043C247.407 68.4087 245.538 69.7273 243.288 70.6608C241.038 71.5534 238.447 72 235.513 72ZM273.114 72C269.618 72 266.504 71.29 263.772 69.8695C261.04 68.4087 258.89 66.4 257.323 63.8434C255.796 61.2869 255.033 58.3855 255.033 55.1391C255.033 51.8521 255.796 48.9507 257.323 46.4347C258.89 43.8782 261.04 41.8898 263.772 40.4695C266.504 39.0087 269.618 38.2782 273.114 38.2782C276.529 38.2782 279.503 39.0087 282.034 40.4695C284.566 41.8898 286.434 43.9391 287.64 46.6173L280.347 50.5739C279.503 49.0318 278.438 47.8956 277.152 47.1652C275.906 46.4347 274.54 46.0695 273.054 46.0695C271.446 46.0695 270 46.4347 268.714 47.1652C267.428 47.8956 266.404 48.9304 265.641 50.2695C264.917 51.6087 264.556 53.2318 264.556 55.1391C264.556 57.0463 264.917 58.6695 265.641 60.0087C266.404 61.3478 267.428 62.3826 268.714 63.113C270 63.8434 271.446 64.2087 273.054 64.2087C274.54 64.2087 275.906 63.8637 277.152 63.1739C278.438 62.4434 279.503 61.2869 280.347 59.7043L287.64 63.7217C286.434 66.3594 284.566 68.4087 282.034 69.8695C279.503 71.29 276.529 72 273.114 72ZM300.651 64.8173L300.892 53.2521L316.02 38.7652H327.231L312.705 53.6782L307.823 57.6956L300.651 64.8173ZM292.876 71.513V26.3478H302.279V71.513H292.876ZM317.045 71.513L306.076 57.7565L311.982 50.3913L328.436 71.513H317.045ZM342.368 48.0782H362.619V55.9913H342.368V48.0782ZM343.092 71.513H333.328V28.9043H365.211V36.8173H343.092V71.513ZM371.158 71.513V26.3478H380.56V71.513H371.158ZM404.716 72C401.261 72 398.187 71.2695 395.495 69.8087C392.843 68.3478 390.733 66.3594 389.166 63.8434C387.639 61.2869 386.876 58.3855 386.876 55.1391C386.876 51.8521 387.639 48.9507 389.166 46.4347C390.733 43.8782 392.843 41.8898 395.495 40.4695C398.187 39.0087 401.261 38.2782 404.716 38.2782C408.132 38.2782 411.185 39.0087 413.878 40.4695C416.57 41.8898 418.679 43.8579 420.206 46.3739C421.733 48.8898 422.496 51.8116 422.496 55.1391C422.496 58.3855 421.733 61.2869 420.206 63.8434C418.679 66.3594 416.57 68.3478 413.878 69.8087C411.185 71.2695 408.132 72 404.716 72ZM404.716 64.2087C406.283 64.2087 407.689 63.8434 408.935 63.113C410.181 62.3826 411.165 61.3478 411.889 60.0087C412.612 58.629 412.973 57.0057 412.973 55.1391C412.973 53.2318 412.612 51.6087 411.889 50.2695C411.165 48.9304 410.181 47.8956 408.935 47.1652C407.689 46.4347 406.283 46.0695 404.716 46.0695C403.149 46.0695 401.743 46.4347 400.497 47.1652C399.251 47.8956 398.247 48.9304 397.484 50.2695C396.761 51.6087 396.399 53.2318 396.399 55.1391C396.399 57.0057 396.761 58.629 397.484 60.0087C398.247 61.3478 399.251 62.3826 400.497 63.113C401.743 63.8434 403.149 64.2087 404.716 64.2087ZM435.311 71.513L423.619 38.7652H432.479L442.182 66.9478H437.963L448.089 38.7652H456.045L465.869 66.9478H461.65L471.655 38.7652H479.972L468.219 71.513H459.118L450.5 47.3478H453.272L444.352 71.513H435.311Z" fill="white"/>
<defs>
<linearGradient id="paint0_linear_362_2495" x1="501.009" y1="3.45981e-05" x2="-118.148" y2="172.84" gradientUnits="userSpaceOnUse">
<stop stop-color="#CE4528"/>
<stop offset="1" stop-color="#C90868"/>
</linearGradient>
</defs>
</svg>
