<svg width="711" height="699" viewBox="0 0 711 699" fill="none" xmlns="http://www.w3.org/2000/svg">
<rect width="711" height="699" rx="84" fill="url(#paint0_linear_348_2607)"/>
<path d="M558.604 171.67L558.604 250.2L490.595 210.935L558.604 171.67Z" fill="white"/>
<path d="M558.604 171.67L558.604 250.2L490.595 210.935L558.604 171.67Z" fill="white"/>
<path d="M558.604 171.67L558.604 250.2L490.595 210.935L558.604 171.67Z" fill="white"/>
<path d="M372.173 351.077C379.672 338.831 375.823 322.825 363.577 315.327C351.331 307.828 335.325 311.677 327.827 323.923L372.173 351.077ZM265.5 475.5V501.5H280.067L287.673 489.077L265.5 475.5ZM208.5 475.5L185.913 488.377L193.394 501.5H208.5V475.5ZM178 422L155.478 409.01L148.029 421.925L155.413 434.877L178 422ZM309.5 194V168H294.481L286.978 181.01L309.5 194ZM400.5 194L422.992 180.958L415.478 168H400.5V194ZM533 422.5L555.443 435.627L563.088 422.557L555.492 409.458L533 422.5ZM502 475.5L501.891 501.5L516.877 501.562L524.443 488.627L502 475.5ZM385.5 475.013L363.812 489.352L371.482 500.954L385.391 501.012L385.5 475.013ZM384.5 473.5L362.004 460.465L353.928 474.402L362.812 487.839L384.5 473.5ZM416.875 417.625L439.371 430.66L416.875 417.625ZM536.496 263.035L549.531 240.538L504.538 214.469L491.504 236.965L536.496 263.035ZM327.827 323.923L243.327 461.923L287.673 489.077L372.173 351.077L327.827 323.923ZM265.5 449.5H208.5V501.5H265.5V449.5ZM231.087 462.623L200.587 409.123L155.413 434.877L185.913 488.377L231.087 462.623ZM200.522 434.99L332.022 206.99L286.978 181.01L155.478 409.01L200.522 434.99ZM309.5 220H400.5V168H309.5V220ZM378.008 207.042L510.508 435.542L555.492 409.458L422.992 180.958L378.008 207.042ZM510.557 409.373L479.557 462.373L524.443 488.627L555.443 435.627L510.557 409.373ZM502.109 449.5L385.609 449.013L385.391 501.012L501.891 501.5L502.109 449.5ZM407.188 460.673L406.188 459.161L362.812 487.839L363.812 489.352L407.188 460.673ZM406.996 486.535L439.371 430.66L394.379 404.59L362.004 460.465L406.996 486.535ZM439.371 430.66L536.496 263.035L491.504 236.965L394.379 404.59L439.371 430.66Z" fill="white"/>
<g filter="url(#filter0_d_348_2607)">
<path d="M511.5 253L420.5 411.5" stroke="white" stroke-width="52" stroke-linecap="square"/>
</g>
<path d="M521 238L413.5 424" stroke="white" stroke-width="52" stroke-linecap="square"/>
<defs>
<filter id="filter0_d_348_2607" x="370.006" y="202.506" width="191.987" height="259.487" filterUnits="userSpaceOnUse" color-interpolation-filters="sRGB">
<feFlood flood-opacity="0" result="BackgroundImageFix"/>
<feColorMatrix in="SourceAlpha" type="matrix" values="0 0 0 0 0 0 0 0 0 0 0 0 0 0 0 0 0 0 127 0" result="hardAlpha"/>
<feOffset/>
<feGaussianBlur stdDeviation="7.5"/>
<feComposite in2="hardAlpha" operator="out"/>
<feColorMatrix type="matrix" values="0 0 0 0 0 0 0 0 0 0 0 0 0 0 0 0 0 0 0.5 0"/>
<feBlend mode="normal" in2="BackgroundImageFix" result="effect1_dropShadow_348_2607"/>
<feBlend mode="normal" in="SourceGraphic" in2="effect1_dropShadow_348_2607" result="shape"/>
</filter>
<linearGradient id="paint0_linear_348_2607" x1="711" y1="0" x2="3.96469e-05" y2="699" gradientUnits="userSpaceOnUse">
<stop stop-color="#FD5531"/>
<stop offset="1" stop-color="#FF0984"/>
</linearGradient>
</defs>
</svg>
